#!OML:ASF I:\Actors\actors\Patient Classification 2\Patient 1\Session 1\actor1.ASF
:FULLY-SPECIFIED
:DEGREES
196
root -0.420895 18.3645 5.69034 -6.46791 1.16705 -2.3949
lowerback 13.1107 0.821625 1.61942
upperback 2.72237 1.31104 0.0246556
thorax -4.44779 0.628787 -1.10666
lowerneck -10.3398 -2.54008 -1.14304
upperneck 19.872 -4.17777 4.23327
head 7.95664 -1.66534 1.17642
rclavicle -5.29264e-015 3.18055e-015
rhumerus 32.1277 25.979 -58.11
rradius 63.7449
rwrist 19.539
rhand -18.7318 -30.0311
rfingers 7.12502
rthumb 7.56398 -59.8759
lclavicle -5.29264e-015 3.18055e-015
lhumerus 22.5838 -20.5329 78.4807
lradius 63.9996
lwrist 16.9231
lhand -17.389 -20.2886
lfingers 7.12502
lthumb 8.86 9.50539
rfemur 10.4918 -1.60837 15.4298
rtibia 10.9926
rfoot -19.7397 -8.44076
rtoes -12.6532
lfemur -4.67917 1.47836 -14.3631
ltibia 34.2645
lfoot -22.6495 4.10704
ltoes -56.2908
197
root -0.432814 18.3646 5.67809 -6.43226 1.03229 -2.35061
lowerback 13.0423 0.889201 1.59456
upperback 2.86366 1.39147 -0.0318069
thorax -4.25875 0.671462 -1.16165
lowerneck -10.5728 -2.58669 -1.28635
upperneck 19.8104 -4.25618 4.44016
head 7.98874 -1.69099 1.25794
rclavicle -1.22501e-014 -3.77691e-015
rhumerus 32.7557 26.1116 -57.7589
rradius 63.6436
rwrist 19.7864
rhand -18.5282 -30.0621
rfingers 7.12502
rthumb 7.76055 -59.8997
lclavicle -1.22501e-014 -3.77691e-015
lhumerus 22.6219 -20.2426 78.574
lradius 64.1261
lwrist 17.1533
lhand -17.2808 -20.1059
lfingers 7.12502
lthumb 8.96434 9.68366
rfemur 10.1828 -1.65329 15.4006
rtibia 11.3507
rfoot -19.6459 -8.28398
rtoes -12.6722
lfemur -4.77307 1.39048 -14.4252
ltibia 34.2947
lfoot -22.6675 4.4472
ltoes -56.7502
198
root -0.431636 18.3629 5.65802 -6.2643 0.483936 -2.33076
lowerback 13.3604 1.04424 1.8828
upperback 2.65407 1.63421 -0.212497
thorax -4.63194 0.780878 -1.56426
lowerneck -10.6233 -2.61032 -1.32734
upperneck 19.9369 -4.33098 4.646
head 8.04834 -1.70691 1.32494
rclavicle -2.30093e-014 -2.78299e-015
rhumerus 32.8801 26.3934 -57.7811
rradius 63.5824
rwrist 20.1449
rhand -18.2714 -30.188
rfingers 7.12502
rthumb 8.00841 -60.0163
lclavicle -2.30093e-014 -2.78299e-015
lhumerus 22.2314 -20.1626 78.6068
lradius 64.2845
lwrist 17.269
lhand -17.0929 -19.8335
lfingers 7.12502
lthumb 9.14565 9.94819
rfemur 9.59534 -1.5799 15.3304
rtibia 11.702
rfoot -19.2979 -7.96874
rtoes -12.7389
lfemur -4.99313 1.38445 -14.5386
ltibia 34.367
lfoot -22.7908 5.06142
ltoes -56.7604
199
root -0.456073 18.3611 5.6567 -6.33288 0.487298 -2.37312
lowerback 13.3916 1.08086 1.81619
upperback 2.67964 1.6711 -0.261754
thorax -4.62115 0.800045 -1.58492
lowerneck -10.5813 -2.62598 -1.32409
upperneck 19.8907 -4.38424 4.8037
head 8.03097 -1.71825 1.37162
rclavicle 7.15625e-015 2.38542e-015
rhumerus 33.0864 26.5834 -57.682
rradius 63.538
rwrist 20.4928
rhand -17.948 -30.2625
rfingers 7.12502
rthumb 8.32053 -60.0786
lclavicle 7.15625e-015 2.38542e-015
lhumerus 22.0103 -20.1517 78.5128
lradius 64.3912
lwrist 17.2694
lhand -16.9738 -19.7051
lfingers 7.12502
lthumb 9.26066 10.0715
rfemur 9.51466 -1.56396 15.4741
rtibia 12.0204
rfoot -19.4555 -7.87685
rtoes -12.4802
lfemur -4.95475 1.22802 -14.4376
ltibia 34.446
lfoot -22.8757 5.17784
ltoes -56.4826
200
root -0.474922 18.3608 5.65135 -6.34224 0.519631 -2.37796
lowerback 13.4297 1.11935 1.79646
upperback 2.66877 1.7166 -0.327699
thorax -4.65017 0.821979 -1.65183
lowerneck -10.4931 -2.66416 -1.26274
upperneck 19.8219 -4.45816 4.86701
head 7.99498 -1.7453 1.37569
rclavicle 1.31943e-014 3.97569e-016
rhumerus 33.2277 26.7121 -57.5536
rradius 63.5018
rwrist 20.7125
rhand -17.5956 -30.2794
rfingers 7.12502
rthumb 8.66064 -60.0817
lclavicle 1.31943e-014 3.97569e-016
lhumerus 21.8285 -20.2126 78.3918
lradius 64.4342
lwrist 17.188
lhand -16.7621 -19.6608
lfingers 7.12502
lthumb 9.46494 10.1067
rfemur 9.37381 -1.68979 15.5151
rtibia 12.2718
rfoot -19.4659 -7.71403
rtoes -12.2358
lfemur -5.01783 1.04959 -14.4198
ltibia 34.5348
lfoot -22.9038 5.41939
ltoes -56.607
201
root -0.496472 18.3594 5.64503 -6.36226 0.505954 -2.41749
lowerback 13.3865 1.18074 1.78508
upperback 2.7289 1.79239 -0.376352
thorax -4.55894 0.861034 -1.70688
lowerneck -10.4903 -2.72182 -1.18993
upperneck 19.7572 -4.55014 4.87683
head 7.97492 -1.78378 1.3573
rclavicle -1.10822e-014 1.59028e-014
rhumerus 33.3798 26.7395 -57.4342
rradius 63.4782
rwrist 20.8247
rhand -17.3256 -30.3542
rfingers 7.12502
rthumb 8.92111 -60.1456
lclavicle -1.10822e-014 1.59028e-014
lhumerus 21.8168 -20.2974 78.2016
lradius 64.4531
lwrist 17.1503
lhand -16.5904 -19.5702
lfingers 7.12502
lthumb 9.63054 10.1896
rfemur 9.3 -1.75618 15.6151
rtibia 12.4052
rfoot -19.4595 -7.57019
rtoes -11.7257
lfemur -5.05166 0.905718 -14.3493
ltibia 34.5942
lfoot -22.8959 5.68502
ltoes -56.8987
202
root -0.521749 18.3569 5.64049 -6.42182 0.421173 -2.47338
lowerback 13.5563 1.24383 1.75809
upperback 2.66717 1.87209 -0.437428
thorax -4.71243 0.897688 -1.77538
lowerneck -10.4256 -2.76453 -1.12639
upperneck 19.8044 -4.63628 4.93771
head 7.98211 -1.81432 1.35897
rclavicle 9.29318e-015 -1.23246e-014
rhumerus 33.2594 26.8735 -57.551
rradius 63.482
rwrist 20.909
rhand -17.2212 -30.4688
rfingers 7.12502
rthumb 9.02194 -60.2558
lclavicle 9.29318e-015 -1.23246e-014
lhumerus 21.5995 -20.4201 77.988
lradius 64.5103
lwrist 17.1599
lhand -16.5484 -19.4985
lfingers 7.12502
lthumb 9.67109 10.2595
rfemur 9.27023 -1.71999 15.7604
rtibia 12.5483
rfoot -19.5146 -7.41343
rtoes -11.0302
lfemur -5.01687 0.852261 -14.2211
ltibia 34.6423
lfoot -22.8732 5.80423
ltoes -56.9611
203
root -0.545311 18.3544 5.63598 -6.47656 0.357908 -2.50339
lowerback 13.5943 1.31127 1.68346
upperback 2.67639 1.94988 -0.461903
thorax -4.72194 0.936802 -1.77322
lowerneck -10.3182 -2.81474 -1.1483
upperneck 19.7198 -4.71784 5.03928
head 7.94048 -1.84844 1.38917
rclavicle 1.88845e-014 -7.95139e-015
rhumerus 33.2271 26.9566 -57.5705
rradius 63.4855
rwrist 20.8922
rhand -17.1995 -30.5619
rfingers 7.12502
rthumb 9.04288 -60.3481
lclavicle 1.88845e-014 -7.95139e-015
lhumerus 21.4963 -20.4684 77.8559
lradius 64.5162
lwrist 17.1401
lhand -16.3467 -19.3902
lfingers 7.12502
lthumb 9.86563 10.3587
rfemur 9.22597 -1.77701 15.853
rtibia 12.6989
rfoot -19.5003 -7.28116
rtoes -10.9317
lfemur -4.97744 0.790186 -14.1274
ltibia 34.6589
lfoot -22.8119 5.91521
ltoes -56.9847
204
root -0.567417 18.3533 5.63059 -6.5215 0.318364 -2.5445
lowerback 13.742 1.36425 1.673
upperback 2.62217 2.0193 -0.49433
thorax -4.85627 0.968596 -1.81918
lowerneck -10.2518 -2.87053 -1.17268
upperneck 19.7079 -4.80345 5.10595
head 7.92984 -1.88592 1.40745
rclavicle 1.4561e-014 2.78299e-015
rhumerus 33.1249 27.0451 -57.6138
rradius 63.4832
rwrist 20.7602
rhand -17.1868 -30.6332
rfingers 7.12502
rthumb 9.05509 -60.4188
lclavicle 1.4561e-014 2.78299e-015
lhumerus 21.3913 -20.5271 77.7475
lradius 64.4537
lwrist 17.0872
lhand -16.0163 -19.1888
lfingers 7.12502
lthumb 10.1844 10.5447
rfemur 9.15611 -1.90562 15.9416
rtibia 12.8796
rfoot -19.4771 -7.12944
rtoes -10.98
lfemur -4.94573 0.734645 -14.0216
ltibia 34.6442
lfoot -22.745 6.06758
ltoes -57.1066
205
root -0.589853 18.3523 5.62466 -6.57898 0.25941 -2.54769
lowerback 13.7901 1.41543 1.60993
upperback 2.66294 2.07686 -0.519661
thorax -4.8386 0.99821 -1.82091
lowerneck -10.3124 -2.90298 -1.08057
upperneck 19.6672 -4.83965 4.99211
head 7.92351 -1.90688 1.34993
rclavicle -1.02871e-014 0
rhumerus 33.1482 27.0473 -57.6516
rradius 63.4796
rwrist 20.6184
rhand -17.0766 -30.616
rfingers 7.12502
rthumb 9.16141 -60.397
lclavicle -1.02871e-014 0
lhumerus 21.4667 -20.5446 77.5424
lradius 64.3847
lwrist 16.983
lhand -15.8254 -19.0288
lfingers 7.12502
lthumb 10.3685 10.6955
rfemur 9.10037 -1.92374 16.0105
rtibia 13.0695
rfoot -19.5403 -6.98045
rtoes -10.7428
lfemur -4.88207 0.74312 -13.9369
ltibia 34.616
lfoot -22.7304 6.12854
ltoes -57.1305
206
root -0.6115 18.3508 5.6191 -6.62831 0.197829 -2.47743
lowerback 13.9491 1.45235 1.52307
upperback 2.60797 2.11077 -0.602743
thorax -4.98219 1.01318 -1.87173
lowerneck -10.2771 -2.90129 -0.829979
upperneck 19.656 -4.83548 4.76472
head 7.90145 -1.9089 1.23405
rclavicle 1.35174e-014 -1.86858e-014
rhumerus 32.9717 27.0566 -57.9735
rradius 63.451
rwrist 20.5006
rhand -16.8942 -30.6087
rfingers 7.12502
rthumb 9.33744 -60.3819
lclavicle 1.35174e-014 -1.86858e-014
lhumerus 21.389 -20.614 77.2722
lradius 64.3477
lwrist 16.801
lhand -15.6499 -19.0121
lfingers 7.12502
lthumb 10.5379 10.7037
rfemur 9.03755 -1.90826 16.0018
rtibia 13.2562
rfoot -19.5974 -6.87707
rtoes -10.8559
lfemur -4.80981 0.71942 -13.9431
ltibia 34.5854
lfoot -22.7818 6.14434
ltoes -57.0444
207
root -0.632789 18.35 5.61399 -6.64794 0.143523 -2.4225
lowerback 13.9614 1.50354 1.39531
upperback 2.61819 2.15834 -0.627809
thorax -4.97999 1.03841 -1.83458
lowerneck -10.2715 -2.88267 -0.608571
upperneck 19.612 -4.80376 4.55175
head 7.87415 -1.89869 1.1303
rclavicle -2.36554e-014 7.55382e-015
rhumerus 32.8943 27.0082 -58.1194
rradius 63.4322
rwrist 20.1423
rhand -16.7772 -30.8134
rfingers 7.12502
rthumb 9.45035 -60.5815
lclavicle -2.36554e-014 7.55382e-015
lhumerus 21.4964 -20.6792 77.0069
lradius 64.2356
lwrist 16.4995
lhand -15.3562 -19.0711
lfingers 7.12502
lthumb 10.8212 10.6301
rfemur 8.93197 -1.92457 16.0027
rtibia 13.4562
rfoot -19.6519 -6.76712
rtoes -11.0088
lfemur -4.77837 0.666153 -13.9396
ltibia 34.5646
lfoot -22.799 6.19663
ltoes -56.9342
208
root -0.653573 18.3491 5.60883 -6.68185 0.117974 -2.37891
lowerback 14.0202 1.53455 1.32529
upperback 2.61389 2.18784 -0.659711
thorax -5.01695 1.05322 -1.83601
lowerneck -10.2495 -2.85607 -0.462893
upperneck 19.5865 -4.77026 4.44648
head 7.8547 -1.88289 1.0751
rclavicle 1.03368e-014 -2.78299e-015
rhumerus 32.7662 26.9818 -58.2067
rradius 63.4759
rwrist 19.5264
rhand -16.8068 -31.1465
rfingers 7.12502
rthumb 9.42173 -60.9159
lclavicle 1.03368e-014 -2.78299e-015
lhumerus 21.6771 -20.7959 76.6845
lradius 64.0997
lwrist 16.0618
lhand -15.0337 -19.0856
lfingers 7.12502
lthumb 11.1322 10.5992
rfemur 8.84622 -1.92839 16.0203
rtibia 13.6577
rfoot -19.7413 -6.68698
rtoes -11.0338
lfemur -4.75015 0.647023 -13.9144
ltibia 34.5617
lfoot -22.7651 6.21996
ltoes -56.8884
209
root -0.672902 18.3477 5.60398 -6.71836 0.1347 -2.32019
lowerback 14.0397 1.54694 1.25739
upperback 2.63114 2.19254 -0.691226
thorax -5.01056 1.05657 -1.83196
lowerneck -10.2181 -2.83489 -0.354389
upperneck 19.5377 -4.73794 4.35014
head 7.82696 -1.87016 1.02909
rclavicle 2.25621e-014 4.77083e-015
rhumerus 32.6333 26.9184 -58.3516
rradius 63.4819
rwrist 18.8524
rhand -16.9533 -31.4089
rfingers 7.12502
rthumb 9.2804 -61.1846
lclavicle 2.25621e-014 4.77083e-015
lhumerus 21.9438 -20.9133 76.3299
lradius 63.9649
lwrist 15.4497
lhand -14.6469 -19.0211
lfingers 7.12502
lthumb 11.5053 10.6432
rfemur 8.78837 -1.99036 16.0046
rtibia 13.8312
rfoot -19.7984 -6.6101
rtoes -11.1211
lfemur -4.72861 0.611816 -13.9141
ltibia 34.5754
lfoot -22.7708 6.21173
ltoes -56.9312
210
root -0.691641 18.3466 5.59949 -6.73844 0.176775 -2.28314
lowerback 13.9713 1.55419 1.17354
upperback 2.68069 2.18951 -0.68418
thorax -4.92444 1.05783 -1.77311
lowerneck -10.1941 -2.82628 -0.266569
upperneck 19.4634 -4.71116 4.2207
head 7.79189 -1.86507 0.975044
rclavicle -2.80783e-014 5.56597e-015
rhumerus 32.4831 26.7663 -58.5631
rradius 63.4715
rwrist 18.2493
rhand -17.0952 -31.5398
rfingers 7.12502
rthumb 9.14347 -61.3216
lclavicle -2.80783e-014 5.56597e-015
lhumerus 22.2954 -21.042 75.9387
lradius 63.8036
lwrist 14.7369
lhand -14.2142 -19.0344
lfingers 7.12502
lthumb 11.9226 10.6061
rfemur 8.73313 -2.121 15.9933
rtibia 13.9702
rfoot -19.8356 -6.46322
rtoes -10.9269
lfemur -4.73884 0.565381 -13.8957
ltibia 34.5957
lfoot -22.7788 6.22111
ltoes -56.992
